<?xml version="1.0" standalone="no"?>
<!DOCTYPE svg PUBLIC "-//W3C//DTD SVG 20010904//EN"
 "http://www.w3.org/TR/2001/REC-SVG-20010904/DTD/svg10.dtd">
<svg version="1.0" xmlns="http://www.w3.org/2000/svg"
 width="700.000000pt" height="700.000000pt" viewBox="0 0 700.000000 700.000000"
 preserveAspectRatio="xMidYMid meet">
<metadata>
Created by potrace 1.11, written by Peter Selinger 2001-2013
</metadata>
<g transform="translate(0.000000,700.000000) scale(0.100000,-0.100000)"
fill="#000000" stroke="none">
<path d="M3479 6979 c-78 -12 -146 -48 -194 -103 -25 -28 -41 -52 -35 -54 5
-2 7 -9 4 -15 -4 -7 8 5 26 26 33 39 118 102 126 94 3 -3 -10 -14 -28 -25 -79
-49 -147 -140 -165 -222 -7 -28 -10 -175 -5 -212 4 -37 22 -54 22 -22 0 8 5
12 10 9 6 -3 10 -13 10 -21 0 -12 -205 -14 -1513 -16 l-1512 -3 588 -1030
c323 -566 602 -1055 619 -1085 17 -30 228 -399 468 -820 240 -421 448 -785
462 -810 14 -25 61 -106 103 -180 43 -74 90 -157 105 -185 15 -27 108 -189
206 -360 97 -170 182 -319 188 -330 6 -11 65 -113 130 -228 65 -114 117 -209
115 -211 -2 -2 -42 -15 -89 -31 -47 -15 -90 -32 -97 -37 -19 -16 -26 -67 -13
-101 25 -64 80 -176 90 -182 6 -3 10 -14 10 -24 0 -10 7 -24 15 -31 8 -7 13
-15 10 -19 -2 -4 3 -21 12 -37 8 -16 17 -42 20 -59 3 -16 9 -38 14 -47 5 -9 9
-28 9 -42 0 -14 5 -28 10 -31 6 -3 10 -14 10 -23 0 -19 76 -133 96 -145 8 -4
14 -14 14 -21 0 -21 115 -106 146 -107 48 -3 52 0 69 35 15 31 15 38 -1 97
-22 81 -26 239 -6 255 9 7 14 30 13 67 0 31 4 59 9 62 4 3 17 -7 28 -23 14
-19 42 -35 87 -51 36 -13 69 -21 72 -17 8 8 8 8 -74 40 -84 32 -103 55 -99
118 3 59 40 129 64 122 14 -5 14 -4 2 5 -15 10 -7 26 13 26 6 0 22 19 35 42
13 24 21 43 18 43 -3 0 -15 -19 -27 -42 -12 -24 -24 -38 -26 -32 -4 13 69 143
81 144 5 0 4 -6 -1 -12 -15 -20 -24 -50 -13 -43 6 3 10 12 10 20 0 7 6 15 13
18 9 3 9 7 0 18 -9 11 -7 20 9 39 l20 25 -16 -27 c-9 -16 -12 -28 -7 -28 8 0
24 23 72 107 11 18 28 48 38 65 303 521 537 945 529 955 -15 19 38 107 60 98
8 -3 34 -10 57 -15 23 -5 54 -16 69 -24 29 -14 64 -13 97 5 21 11 36 76 23 95
-104 148 -117 175 -96 188 5 3 7 20 5 38 -4 31 -3 32 11 14 9 -11 19 -17 22
-13 4 3 -1 13 -10 22 -15 15 -15 19 3 43 10 15 28 47 41 71 16 32 24 40 30 30
5 -7 11 -11 13 -9 3 3 132 228 287 500 155 272 309 542 343 600 33 58 69 121
80 140 10 19 83 145 160 280 77 135 154 270 170 300 16 30 33 60 37 65 5 6 20
33 35 60 16 28 99 174 185 325 281 490 682 1194 708 1240 14 25 31 54 38 65 8
11 14 23 14 27 0 5 -607 8 -1350 8 -742 0 -1350 2 -1350 4 0 3 5 17 11 33 6
15 13 46 14 68 2 22 7 60 10 83 9 57 -15 121 -69 186 -31 37 -61 59 -131 93
-84 41 -94 44 -163 41 -41 -1 -76 -6 -78 -10 -10 -16 -42 -7 -57 15 -25 38
-66 54 -118 46z m-879 -1121 c0 -6 -57 -68 -127 -137 -71 -69 -151 -153 -179
-186 -59 -69 -163 -215 -188 -263 -15 -29 -49 -143 -62 -211 -3 -12 -11 -51
-19 -85 -8 -33 -17 -79 -19 -101 -3 -22 -8 -56 -10 -75 -14 -109 -51 -279 -58
-272 -5 5 -42 67 -82 138 -52 90 -71 134 -66 145 6 11 -7 43 -44 105 -29 49
-55 96 -59 104 -4 8 -11 22 -17 30 -25 38 -460 805 -460 812 0 4 313 8 695 8
519 0 695 -3 695 -12z m1435 -8 c17 -11 44 -20 62 -20 17 0 35 -6 40 -12 17
-26 30 -134 32 -256 1 -100 -2 -131 -14 -147 -15 -18 -17 -18 -61 25 -31 32
-49 60 -59 95 -33 110 -92 176 -215 239 -96 49 -130 72 -130 88 0 4 71 8 158
8 140 0 160 -2 187 -20z m1743 12 c-4 -9 -108 -196 -123 -220 -6 -10 -41 -71
-78 -137 -37 -66 -72 -127 -78 -135 -5 -8 -239 -418 -519 -910 -280 -492 -514
-902 -520 -910 -10 -15 -10 -10 6 115 3 28 17 106 30 175 13 69 31 166 40 215
8 50 17 101 19 114 2 14 9 47 15 75 6 28 12 60 14 71 2 11 9 38 14 60 23 86
25 104 27 234 2 123 0 137 -22 181 -27 54 -51 73 -109 89 -66 17 -101 19 -141
11 -21 -5 -63 -11 -93 -15 -88 -11 -221 -35 -280 -51 -30 -8 -62 -16 -70 -18
-41 -11 -163 -47 -232 -69 l-78 -25 5 37 c7 51 13 79 25 117 7 19 13 49 15 67
2 17 4 32 5 32 1 0 3 9 5 20 8 39 30 72 95 135 49 49 70 76 77 105 l9 40 19
-30 c77 -121 206 -222 347 -269 52 -18 108 -18 115 1 3 7 12 13 21 13 8 0 12
3 9 6 -3 4 -2 15 4 26 11 19 22 201 21 319 -1 79 -5 108 -32 264 -12 66 -24
155 -26 198 l-6 77 737 0 c405 0 735 -3 733 -8z m-3004 -311 c3 -5 8 -29 11
-52 3 -24 8 -53 12 -64 3 -11 7 -74 7 -140 1 -66 5 -125 9 -131 16 -27 27
-265 14 -334 -3 -19 -9 -57 -13 -85 -8 -63 -65 -239 -92 -285 -40 -69 -52
-157 -37 -270 4 -30 11 -65 16 -77 5 -13 7 -23 4 -23 -8 0 34 -128 58 -175 41
-80 149 -175 199 -175 11 0 86 -74 87 -86 1 -7 35 -55 57 -79 11 -12 18 -27
16 -33 -2 -7 1 -12 7 -12 16 0 91 -148 105 -210 2 -8 16 -49 31 -90 79 -220
123 -396 131 -532 6 -105 10 -159 19 -230 5 -44 1 -67 -23 -133 -16 -44 -37
-113 -47 -153 -9 -39 -21 -72 -25 -72 -12 0 -33 58 -27 73 3 8 -4 27 -14 43
-11 16 -24 39 -30 52 -5 13 -13 20 -19 17 -5 -3 -7 0 -5 8 3 7 -206 384 -465
836 -258 453 -470 827 -470 832 0 4 -4 10 -9 14 -10 6 -7 -27 4 -45 3 -6 3
-10 -2 -10 -16 0 -148 250 -144 273 8 54 45 41 66 -23 18 -56 44 -83 65 -70
11 7 12 15 3 42 -34 104 -54 144 -94 189 -24 28 -49 60 -56 72 -22 40 -2 167
53 328 20 57 55 170 79 251 62 209 68 221 160 288 69 51 208 161 215 171 11
14 125 109 132 109 4 0 9 -4 12 -9z m1352 -1384 c1 -88 10 -217 19 -267 1 -8
5 -49 9 -90 4 -41 9 -100 12 -130 2 -30 6 -82 8 -115 2 -33 7 -91 11 -130 10
-101 10 -105 -10 -105 -17 0 -20 -32 -5 -61 9 -16 6 -21 -17 -31 -15 -7 -48
-28 -72 -46 -24 -18 -58 -39 -75 -46 -44 -18 -107 -91 -99 -113 4 -10 22 -39
40 -65 18 -26 33 -50 33 -53 0 -3 8 -13 18 -23 59 -63 66 -37 -85 -302 -129
-226 -164 -280 -129 -196 14 34 30 109 27 131 -9 75 -6 298 5 361 9 56 12 148
9 314 -5 260 -7 285 -38 415 -11 50 -21 95 -22 100 -1 6 -4 17 -8 25 -20 49
-65 204 -61 212 3 5 1 15 -5 22 -6 7 -9 20 -6 27 6 15 166 131 270 196 63 40
156 82 165 75 3 -2 5 -49 6 -105z m-856 -1947 c12 -16 18 -30 13 -30 -4 0 -16
14 -25 30 -22 39 -15 39 12 0z"/>
<path d="M3303 2166 c1 -11 9 -21 17 -23 10 -3 11 -2 4 4 -6 4 -14 15 -17 23
-5 11 -6 9 -4 -4z"/>
<path d="M3220 6785 c-6 -14 -15 -37 -21 -52 -5 -16 -6 -23 -1 -18 12 13 43
95 37 95 -3 0 -10 -11 -15 -25z"/>
<path d="M3605 920 c-3 -5 -2 -10 4 -10 5 0 13 5 16 10 3 6 2 10 -4 10 -5 0
-13 -4 -16 -10z"/>
<path d="M3582 878 c-15 -15 -15 -28 0 -28 6 0 8 3 5 7 -4 3 -2 12 4 20 14 16
7 17 -9 1z"/>
</g>
</svg>
